<?xml version="1.0" encoding="UTF-8"?> <svg xmlns="http://www.w3.org/2000/svg" id="Layer_2" data-name="Layer 2" viewBox="0 0 241.3 71.04"><defs><style> .cls-1 { fill: #e429a9; } .cls-1, .cls-2 { stroke-width: 0px; } .cls-2 { fill: #fff; } </style></defs><g id="Layer_1-2" data-name="Layer 1"><g><g><path class="cls-2" d="m71.52,18.46h18.67v5.49h-12.51v7.78h11.52v5.49h-11.52v6.57c0,3.4-2.76,6.17-6.17,6.17h0v-31.5Z"></path><path class="cls-2" d="m100.28,42.4c0,1.05.13,1.82.4,2.29.27.48.7.72,1.31.72.36,0,.71-.03,1.06-.09.34-.06.77-.2,1.28-.41l.63,4.59c-.48.24-1.21.48-2.21.72-.99.24-2.01.36-3.06.36-1.71,0-3.01-.4-3.91-1.19-.9-.79-1.35-2.11-1.35-3.94v-27h0c3.23,0,5.85,2.62,5.85,5.85v18.09Z"></path><path class="cls-2" d="m125.48,48.02c-.9.72-2.12,1.33-3.67,1.82-1.55.49-3.19.74-4.93.74-3.63,0-6.29-1.06-7.97-3.17-1.68-2.12-2.52-5.02-2.52-8.71,0-3.96.95-6.93,2.83-8.91,1.89-1.98,4.55-2.97,7.97-2.97,1.14,0,2.25.15,3.33.45,1.08.3,2.04.8,2.88,1.49.84.69,1.51,1.62,2.02,2.79.51,1.17.77,2.63.77,4.37,0,.63-.04,1.3-.11,2.02-.08.72-.19,1.47-.34,2.25h-13.5c.09,1.89.58,3.32,1.46,4.28.88.96,2.32,1.44,4.3,1.44,1.23,0,2.33-.19,3.31-.56,0,0,.02,0,.03-.01,1.31-.51,2.79.03,3.42,1.28l.71,1.41Zm-8.37-16.51c-1.53,0-2.66.46-3.4,1.37-.74.92-1.18,2.14-1.33,3.67h8.37c.12-1.62-.13-2.86-.74-3.74-.62-.87-1.58-1.3-2.9-1.3Z"></path><path class="cls-2" d="m157.54,21.36c0-.87.32-1.61.97-2.23.64-.62,1.54-.92,2.68-.92s2.06.31,2.77.92,1.06,1.36,1.06,2.23-.35,1.6-1.06,2.18-1.63.88-2.77.88-2.03-.29-2.68-.88c-.65-.58-.97-1.31-.97-2.18Zm.86,6.35h5.85v16.65c0,3.23-2.62,5.85-5.85,5.85h0v-22.5Z"></path><path class="cls-2" d="m178.93,18.95c8.69,0,13.68,6.75,13.68,15.57s-4.99,15.43-13.68,15.43h-11.61v-31h11.61Zm0,29.07c7.51,0,11.66-5.85,11.66-13.5s-4.14-13.63-11.66-13.63h-9.58v27.13h9.58Z"></path><path class="cls-2" d="m218.49,40.24h-18.9c.4,5.08,3.87,8.32,8.64,8.32,3.15,0,5.9-1.57,7.42-4.09l1.75.86c-1.89,3.24-5.35,5.17-9.22,5.17-5.89,0-10.62-4.46-10.62-11.12s4.72-10.98,10.62-10.98,10.3,4.37,10.3,10.98v.86Zm-1.98-1.71c-.32-5-3.69-8.19-8.33-8.19s-8.14,3.06-8.59,8.19h16.92Z"></path><path class="cls-2" d="m239.14,28.94h2.16l-8.96,21.01h-2.25l-8.91-21.01h2.16l7.83,18.76,7.96-18.76Z"></path></g><g><path class="cls-1" d="m61.99,18.87c-.01-1.33-.73-2.56-1.89-3.23l-5.68-3.27c-2.35-1.35-5.28.36-5.25,3.07l.12,13.93c.01,1.35-.7,2.6-1.86,3.28l-23.87,14.09c-2.38,1.4-3.76,3.85-3.9,6.42h0s0,.05,0,.05c-.01.29,0,.59,0,.88l.09,9.1c.01,1.48.83,2.84,2.13,3.55l7.15,3.84h0c1.13.6,2.53.62,3.71-.07,0,0,17.8-10.66,25.67-15.4,2.27-1.37,3.66-3.83,3.65-6.48l-.08-29.77Zm-15.86,35.1l-11.92,6.98c-2.23,1.31-5.09.57-6.41-1.65-1.31-2.22-.32-4.67,1.9-5.99l19.52-11.69v7.61c.05,3.39-.88,3.42-3.1,4.73Z"></path><path class="cls-1" d="m42.32,17.16l-.04-4.49L12.54,31.06l.22-7.72c-.04-3.38,1.21-4.1,3.43-5.41l22.27-13.87c.14-.09.3-.14.45-.21l-6.19-3.4c-1.12-.6-2.53-.62-3.7.07,0,0-17.5,10.88-25.35,15.61C1.38,17.5,0,19.96,0,22.6l.08,29.73c.01,1.33.73,2.56,1.88,3.22l5.67,3.27c2.34,1.35,5.27-.36,5.24-3.06l-.12-13.92c-.01-1.35.69-2.6,1.85-3.28l23.83-14.07c2.38-1.4,3.75-3.85,3.89-6.41h0s0-.05,0-.05c.01-.29,0-.59,0-.88Z"></path></g><path class="cls-2" d="m136.34,39.62l-6.44-4.56c-.7-.49-1.11-1.29-1.11-2.14v-5.23s.03-.04.06-.03l10.76,8.4c.64.5,1.01,1.26,1.01,2.07v2.92c0,.81-.37,1.57-1.01,2.07l-10.82,8.45v-4.87c0-1.15.56-2.23,1.51-2.89l6.04-4.2Z"></path><path class="cls-2" d="m146.89,39.29l6.04,4.2c.94.66,1.51,1.73,1.51,2.89v4.87s-10.82-8.45-10.82-8.45c-.64-.5-1.01-1.26-1.01-2.07v-2.92c0-.81.37-1.57,1.01-2.07l10.76-8.4s.06,0,.06.03v5.23c0,.85-.41,1.65-1.11,2.14l-6.44,4.56Z"></path></g></g></svg> 